<svg id="Layer_1" data-name="Layer 1" xmlns="http://www.w3.org/2000/svg" xmlns:xlink="http://www.w3.org/1999/xlink" viewBox="0 0 1171.49 1008"><defs><style>.cls-1{fill:#55d555;}.cls-2{fill:#2bc3d2;}.cls-3{fill:#40bfff;}.cls-4{fill:#057fd7;}.cls-5{fill:#104e92;}.cls-6{fill:url(#linear-gradient);}.cls-7{font-size:43.16px;fill:#fff;font-family:Itim-Regular, Itim;}</style><linearGradient id="linear-gradient" x1="1826.26" y1="1436.42" x2="1826.26" y2="990.34" gradientTransform="translate(-947.35 -364.17)" gradientUnits="userSpaceOnUse"><stop offset="0" stop-color="#104e92"/><stop offset="0.25" stop-color="#057fd7"/><stop offset="0.5" stop-color="#40bfff"/><stop offset="0.75" stop-color="#2bc3d2"/><stop offset="1" stop-color="#55d555"/></linearGradient></defs><rect class="cls-1" x="253.58" y="-7.94" width="176.97" height="461.26" transform="translate(564.76 -119.38) rotate(90)"/><rect class="cls-2" x="253.58" y="169.03" width="176.97" height="461.26" transform="translate(741.73 57.59) rotate(90)"/><rect class="cls-3" x="253.58" y="346" width="176.97" height="461.26" transform="translate(918.7 234.56) rotate(90)"/><rect class="cls-4" x="790.43" y="-7.94" width="176.97" height="461.26" transform="translate(1101.61 -656.23) rotate(90)"/><rect class="cls-5" x="790.43" y="169.03" width="176.97" height="461.26" transform="translate(1278.58 -479.26) rotate(90)"/><rect class="cls-6" x="790.43" y="610.52" width="176.97" height="461.26" transform="translate(1720.07 -37.77) rotate(90)"/><text class="cls-7" transform="translate(259.81 240.1) scale(0.94 1)">#55d555</text><text class="cls-7" transform="translate(259.91 408.77) scale(0.94 1)">#2bc3d2</text><text class="cls-7" transform="translate(259.81 591.27) scale(0.94 1)">#40bfff</text><text class="cls-7" transform="translate(796.66 231.69) scale(0.94 1)">#057fd7</text><text class="cls-7" transform="translate(796.66 407.99) scale(0.94 1)">#104e92</text><text class="cls-7" transform="translate(796.66 855.29) scale(0.94 1)">Gradient </text></svg>