<svg id="Layer_1" data-name="Layer 1" xmlns="http://www.w3.org/2000/svg" xmlns:xlink="http://www.w3.org/1999/xlink" viewBox="0 0 1171.49 1008"><defs><style>.cls-1,.cls-2,.cls-3,.cls-4,.cls-5,.cls-6,.cls-7,.cls-8,.cls-9{opacity:0.75;}.cls-1{fill:url(#linear-gradient);}.cls-2{fill:url(#linear-gradient-2);}.cls-3{fill:url(#linear-gradient-3);}.cls-4{fill:url(#linear-gradient-4);}.cls-5{fill:url(#linear-gradient-5);}.cls-6{fill:url(#linear-gradient-6);}.cls-7{fill:url(#linear-gradient-7);}.cls-8{fill:url(#linear-gradient-8);}.cls-9{fill:url(#linear-gradient-9);}.cls-10{fill:url(#linear-gradient-10);}.cls-11{fill:#2b2c2d;}.cls-12{fill:#55d555;}.cls-13{fill:#40bfff;}</style><linearGradient id="linear-gradient" x1="496.58" y1="658.65" x2="496.58" y2="270.16" gradientTransform="translate(239.12 1126.03) rotate(-112.38)" gradientUnits="userSpaceOnUse"><stop offset="0" stop-color="#104e92"/><stop offset="0.25" stop-color="#057fd7"/><stop offset="0.5" stop-color="#40bfff"/><stop offset="0.75" stop-color="#55d555"/><stop offset="1" stop-color="#55d555"/></linearGradient><linearGradient id="linear-gradient-2" x1="473.6" y1="658.65" x2="473.6" y2="270.16" gradientTransform="translate(-57.59 1004.79) rotate(-90)" xlink:href="#linear-gradient"/><linearGradient id="linear-gradient-3" x1="472.74" y1="658.65" x2="472.74" y2="270.16" gradientTransform="translate(-241.38 784.77) rotate(-66.95)" xlink:href="#linear-gradient"/><linearGradient id="linear-gradient-4" x1="674.91" y1="658.65" x2="674.91" y2="270.16" gradientTransform="translate(-28.67 923.09) rotate(-67.62)" xlink:href="#linear-gradient"/><linearGradient id="linear-gradient-5" x1="697.89" y1="658.65" x2="697.89" y2="270.16" gradientTransform="translate(166.7 1229.07) rotate(-90)" xlink:href="#linear-gradient"/><linearGradient id="linear-gradient-6" x1="698.75" y1="658.65" x2="698.75" y2="270.16" gradientTransform="translate(443.37 1442.99) rotate(-113.05)" xlink:href="#linear-gradient"/><linearGradient id="linear-gradient-7" x1="585.74" y1="658.65" x2="585.74" y2="270.16" gradientTransform="matrix(1, 0, 0, 1, 0, 0)" xlink:href="#linear-gradient"/><linearGradient id="linear-gradient-8" x1="649.92" y1="658.65" x2="649.92" y2="270.16" gradientTransform="matrix(1, 0, 0, 1, 0, 0)" xlink:href="#linear-gradient"/><linearGradient id="linear-gradient-9" x1="521.57" y1="658.65" x2="521.57" y2="270.16" gradientTransform="matrix(1, 0, 0, 1, 0, 0)" xlink:href="#linear-gradient"/><linearGradient id="linear-gradient-10" x1="585.74" y1="658.65" x2="585.74" y2="270.16" gradientTransform="matrix(1, 0, 0, 1, 0, 0)" xlink:href="#linear-gradient"/></defs><path class="cls-1" d="M590.07,389.45h0a0,0,0,0,1,0,0v0a187,187,0,0,1-187,187h0a0,0,0,0,1,0,0v0a187,187,0,0,1,187-187Z" transform="translate(1132.24 207.71) rotate(112.38)"/><path class="cls-2" d="M547.42,457.37h0a0,0,0,0,1,0,0v0A147.64,147.64,0,0,1,399.78,605h0a0,0,0,0,1,0,0v0A147.64,147.64,0,0,1,547.42,457.37Z" transform="translate(1004.79 57.59) rotate(90)"/><path class="cls-3" d="M529.67,518h0a0,0,0,0,1,0,0v0A113.87,113.87,0,0,1,415.8,631.85h0a0,0,0,0,1,0,0v0A113.87,113.87,0,0,1,529.67,518Z" transform="translate(816.62 -85.2) rotate(66.95)"/><path class="cls-4" d="M581.41,389.45h0a187,187,0,0,1,187,187v0a0,0,0,0,1,0,0h0a187,187,0,0,1-187-187v0A0,0,0,0,1,581.41,389.45Z" transform="translate(864.45 -325.02) rotate(67.62)"/><path class="cls-5" d="M624.07,457.37h0A147.64,147.64,0,0,1,771.71,605v0a0,0,0,0,1,0,0h0A147.64,147.64,0,0,1,624.07,457.37v0A0,0,0,0,1,624.07,457.37Z" transform="translate(1229.07 -166.7) rotate(90)"/><path class="cls-6" d="M641.81,518h0A113.87,113.87,0,0,1,755.68,631.85v0a0,0,0,0,1,0,0h0A113.87,113.87,0,0,1,641.81,518v0A0,0,0,0,1,641.81,518Z" transform="translate(1501.37 157.1) rotate(113.05)"/><path class="cls-7" d="M649.11,377.46a119.12,119.12,0,0,1-19.59,22.15,56.33,56.33,0,1,0-87.56,0,119.84,119.84,0,0,1-19.59-22.15c-35.53-51-23.75-107.26,15.7-141l47.68-40.74,47.67,40.74C672.87,270.2,684.66,326.49,649.11,377.46Z"/><path class="cls-8" d="M649.11,377.46a119.12,119.12,0,0,1-19.59,22.15,56.34,56.34,0,0,0,2.75-67.2A83.13,83.13,0,0,0,666,285.18C674.8,313.75,670.64,346.59,649.11,377.46Z"/><path class="cls-9" d="M542,399.61a119.84,119.84,0,0,1-19.59-22.15c-21.53-30.87-25.69-63.71-16.84-92.28a83.17,83.17,0,0,0,33.68,47.22A56.35,56.35,0,0,0,542,399.61Z"/><path class="cls-10" d="M619.49,364.17a33.75,33.75,0,1,1-33.74-33.76A33.75,33.75,0,0,1,619.49,364.17Z"/><g id="Layer_2" data-name="Layer 2"><path class="cls-11" d="M504.12,728.18h19.45v8.64H498.18a33.3,33.3,0,0,1-7.57-.54,30.9,30.9,0,0,1-7.56.54h-40A18.73,18.73,0,0,1,429,730.88c-2.7-3.24-4.32-8.1-4.32-13.5v-13l9.18-4.86v17.29c0,7.56,3.78,11.34,10.81,11.34h32.41c-4.32-5.4-6.48-10.8-6.48-17.29,0-7,2.16-13,5.94-16.74a19.94,19.94,0,0,1,14.58-5.94,19.2,19.2,0,0,1,15.67,7.56c3.24,4.32,4.32,9.18,4.32,15.12A32,32,0,0,1,504.12,728.18Zm-13.51-1.08a15.63,15.63,0,0,0,8.11-6.48A17.79,17.79,0,0,0,502,710.35q0-6.48-3.24-9.72a9.73,9.73,0,0,0-8.11-3.78c-3.24,0-6.48,1.08-8.1,3.78-2.16,2.16-3.24,5.94-3.24,9.72a17.79,17.79,0,0,0,3.24,10.27A15.61,15.61,0,0,0,490.61,727.1Zm.54-49.7c-3.78,0-5.4-1.62-5.4-5.4s1.62-5.4,5.4-5.4c3.25,0,5.41,1.62,5.41,5.4A5.1,5.1,0,0,1,491.15,677.4Z"/><path class="cls-11" d="M517.08,736.82v-8.64h7c7,0,10.8-3.78,10.8-10.8V694.69l9.18-4.86v27.55c0,5.94-1.62,10.8-5.4,14.58-3.24,3.24-8.1,4.86-13.5,4.86ZM523,758.43c-3.79,0-5.41-1.62-5.41-5.4s1.62-5.4,5.41-5.4c3.24,0,5.4,1.62,5.4,5.4C527.89,756.27,526.27,758.43,523,758.43Zm13.5,0c-3.78,0-5.4-1.62-5.4-5.4s1.62-5.4,5.4-5.4c3.24,0,5.4,1.62,5.4,5.4C541.93,756.27,540.31,758.43,536.53,758.43Z"/><path class="cls-11" d="M604.06,671.46l9.18-4.86v49.7c0,6.48-2.16,11.34-5.94,15.12a20.56,20.56,0,0,1-14,5.4H556l4.32-8.64H576V686.05l9.19-4.87v47h7c7.56,0,11.35-3.78,11.35-11.88V671.46Z"/><path class="cls-11" d="M684,728.18v8.64H670.5c-.54,6.49-2.7,11.35-8.1,15.67a23.72,23.72,0,0,1-14.59,4.86,28.76,28.76,0,0,1-13-3.24V746a22.68,22.68,0,0,0,11.34,3.24,15.15,15.15,0,0,0,10.26-3.78,11.27,11.27,0,0,0,4.33-8.65c-3.79,0-6.49-.54-8.11-.54q-11.34-.81-17.82-8.1c-3.24-4.32-4.87-9.18-4.87-15.67,0-8.1,2.17-14,6.49-18.36,3.78-3.78,8.64-5.94,15.12-5.94s11.35,2.16,15.13,5.94c2.7,3.24,4.32,8.1,4.32,13.5v20.53Zm-23.22-20q0-11.34-9.73-11.34a10.49,10.49,0,0,0-8.64,4.32q-3.24,4.05-3.24,11.34c0,9.73,4.86,14.59,14,15.13,1.62,0,4.32.54,8.11.54v-20Z"/><path class="cls-11" d="M714.8,728.18h7v8.64h-8.1c-6,0-10.81-2.16-14.05-5.94-3.24,3.78-8.1,5.94-14,5.94H677v-8.64h7c7,0,10.81-3.78,10.81-10.8V694.69l9.18-4.86v27.55C704.53,724.4,707.77,728.18,714.8,728.18Zm-25.93,19.45c3.24,0,5.4,1.62,5.4,5.4s-1.62,5.4-5.4,5.4-5.41-1.62-5.41-5.4C684,749.25,685.63,747.63,688.87,747.63Zm14,0c3.24,0,5.4,1.62,5.4,5.4s-1.62,5.4-5.4,5.4-5.4-1.62-5.4-5.4S699.13,747.63,702.91,747.63Z"/><path class="cls-11" d="M715.88,736.82v-8.64h7c7,0,10.8-3.78,10.8-10.8V694.69l9.19-4.86v27.55c0,5.94-1.62,10.8-5.41,14.58-3.24,3.24-8.1,4.86-13.5,4.86ZM738,676.32c-3.78,0-5.4-1.62-5.4-5.4s1.62-5.4,5.4-5.4c3.25,0,5.41,1.62,5.41,5.4C742.89,674.7,741.27,676.32,738,676.32Z"/></g><path class="cls-11" d="M421.8,796a7.85,7.85,0,0,1,.61-3.09,7.83,7.83,0,0,1,4.16-4.23,7.41,7.41,0,0,1,3-.63,7.27,7.27,0,0,1,3,.64,8,8,0,0,1,2.49,1.71,8.21,8.21,0,0,1,1.68,2.5,7.6,7.6,0,0,1,.61,3v3.89a5.91,5.91,0,0,1-.44,2.31,5.26,5.26,0,0,1-3,2.91,6.08,6.08,0,0,1-2.19.4h-4.4a6,6,0,0,1-2.22-.4,5.09,5.09,0,0,1-1.77-1.12,5.15,5.15,0,0,1-1.18-1.75,5.76,5.76,0,0,1-.43-2.28Zm3.42,3.89a2.06,2.06,0,0,0,.63,1.56,2.16,2.16,0,0,0,1.55.59h4.4a2.16,2.16,0,0,0,1.57-.61,2.09,2.09,0,0,0,.64-1.61V796a4.37,4.37,0,0,0-1.29-3.14,4.56,4.56,0,0,0-1.4-1,4.27,4.27,0,0,0-3.43,0,4.4,4.4,0,0,0-1.39,1,4.33,4.33,0,0,0-.94,1.44,4.61,4.61,0,0,0-.34,1.77Zm.09-16.87a1.67,1.67,0,0,1,.13-.67,1.79,1.79,0,0,1,.38-.56,2,2,0,0,1,.56-.38,1.91,1.91,0,0,1,.68-.13,1.86,1.86,0,0,1,.67.13,2,2,0,0,1,.56.38,1.79,1.79,0,0,1,.38.56,1.67,1.67,0,0,1,.14.67,1.72,1.72,0,0,1-.14.68,1.6,1.6,0,0,1-.38.54,1.76,1.76,0,0,1-.56.37,1.67,1.67,0,0,1-.67.14,1.72,1.72,0,0,1-.68-.14,1.76,1.76,0,0,1-.56-.37,1.6,1.6,0,0,1-.38-.54A1.72,1.72,0,0,1,425.31,783.06Zm5.1,0a1.67,1.67,0,0,1,.13-.67,1.79,1.79,0,0,1,.38-.56,2,2,0,0,1,.56-.38,1.91,1.91,0,0,1,.68-.13,1.86,1.86,0,0,1,.67.13,1.8,1.8,0,0,1,.55.38,1.76,1.76,0,0,1,.37.56,1.67,1.67,0,0,1,.14.67,1.74,1.74,0,0,1-1.73,1.73,1.72,1.72,0,0,1-.68-.14,1.76,1.76,0,0,1-.56-.37,1.6,1.6,0,0,1-.38-.54A1.72,1.72,0,0,1,430.41,783.06Z"/><path class="cls-11" d="M442.19,788.07a23.55,23.55,0,0,1,5.36.53,10.33,10.33,0,0,1,3.62,1.56,6.35,6.35,0,0,1,2.08,2.54,8.58,8.58,0,0,1,.66,3.46v5.92h3.48v3.4H441.22v-3.4h9.26v-5.92a4.23,4.23,0,0,0-.46-2,4,4,0,0,0-1.47-1.47,8.19,8.19,0,0,0-2.57-.91,20.56,20.56,0,0,0-3.79-.3Z"/><path class="cls-11" d="M465.13,788.07v11.82a5.28,5.28,0,0,1-.44,2.18,5.62,5.62,0,0,1-3,3,5.47,5.47,0,0,1-2.17.44h-3.66v-3.4h3.66a2.05,2.05,0,0,0,.85-.17,2.31,2.31,0,0,0,.69-.46,2.1,2.1,0,0,0,.47-.7,2.2,2.2,0,0,0,.17-.86V788.07Zm-8.59,22.46a1.72,1.72,0,0,1,.13-.68,1.91,1.91,0,0,1,.38-.56,1.76,1.76,0,0,1,.56-.37,1.72,1.72,0,0,1,.68-.14,1.67,1.67,0,0,1,.67.14,1.76,1.76,0,0,1,.56.37,1.91,1.91,0,0,1,.38.56,1.72,1.72,0,0,1,.14.68,1.67,1.67,0,0,1-.14.67,1.75,1.75,0,0,1-.38.55,2.18,2.18,0,0,1-.56.37,1.86,1.86,0,0,1-.67.13,1.91,1.91,0,0,1-.68-.13,2.18,2.18,0,0,1-.56-.37,1.75,1.75,0,0,1-.38-.55A1.67,1.67,0,0,1,456.54,810.53Zm5.1,0a1.72,1.72,0,0,1,.13-.68,1.8,1.8,0,0,1,1-.93,1.69,1.69,0,0,1,.68-.14,1.76,1.76,0,0,1,.68.14,1.72,1.72,0,0,1,.55.37,2.1,2.1,0,0,1,.37.56,1.72,1.72,0,0,1,.13.68,1.66,1.66,0,0,1-.5,1.22,1.71,1.71,0,0,1-1.23.5,1.87,1.87,0,0,1-.68-.13,2.18,2.18,0,0,1-.56-.37,1.63,1.63,0,0,1-.39-.55A1.67,1.67,0,0,1,461.64,810.53Z"/><path class="cls-11" d="M469.87,788.07a23.45,23.45,0,0,1,5.35.53,10.3,10.3,0,0,1,3.63,1.56,6.35,6.35,0,0,1,2.08,2.54,8.58,8.58,0,0,1,.66,3.46v5.92h3.48v3.4H468.9v-3.4h9.26v-5.92a4.12,4.12,0,0,0-.47-2,3.88,3.88,0,0,0-1.46-1.47,8.19,8.19,0,0,0-2.57-.91,20.56,20.56,0,0,0-3.79-.3Z"/><path class="cls-11" d="M486.78,789.77c.32-.15.75-.33,1.28-.53s1.11-.38,1.75-.56a20.57,20.57,0,0,1,2-.45,12.26,12.26,0,0,1,2.06-.17,11.75,11.75,0,0,1,2.9.36,6.37,6.37,0,0,1,2.53,1.27,6.48,6.48,0,0,1,1.79,2.48,10.2,10.2,0,0,1,.68,4V800a5.12,5.12,0,0,1-.45,2.13,5.42,5.42,0,0,1-1.21,1.76,5.54,5.54,0,0,1-1.8,1.19,5.73,5.73,0,0,1-2.18.43H483.53v-3.4h12.62a2.05,2.05,0,0,0,.85-.17,2.12,2.12,0,0,0,.71-.46,1.88,1.88,0,0,0,.48-.67,1.92,1.92,0,0,0,.18-.82v-3.8a6,6,0,0,0-.39-2.31,3.83,3.83,0,0,0-1-1.44,3.59,3.59,0,0,0-1.44-.74,6,6,0,0,0-1.64-.22,10.36,10.36,0,0,0-1.63.14c-.55.1-1.09.22-1.59.35s-1,.29-1.4.45-.77.31-1,.43Zm5.46,20.7a1.64,1.64,0,0,1,.5-1.22,1.68,1.68,0,0,1,1.25-.5,1.72,1.72,0,0,1,1.73,1.72,1.72,1.72,0,0,1-.14.68,1.84,1.84,0,0,1-.37.55,1.75,1.75,0,0,1-.55.38,1.67,1.67,0,0,1-.67.13,1.8,1.8,0,0,1-.69-.13,1.68,1.68,0,0,1-.56-.38,2,2,0,0,1-.37-.55A1.72,1.72,0,0,1,492.24,810.47Z"/><path class="cls-12" d="M511.41,796a8,8,0,0,1,2.29-5.62,8.15,8.15,0,0,1,2.49-1.7,7.36,7.36,0,0,1,3-.63,7.28,7.28,0,0,1,3,.64,8,8,0,0,1,2.49,1.71,8.36,8.36,0,0,1,1.67,2.5,7.6,7.6,0,0,1,.62,3v3.89a5.73,5.73,0,0,1-.45,2.31,5.23,5.23,0,0,1-1.2,1.77,5.49,5.49,0,0,1-1.78,1.14,6.14,6.14,0,0,1-2.2.4H517a6,6,0,0,1-2.21-.4A5,5,0,0,1,513,804a5.29,5.29,0,0,1-1.18-1.75,5.94,5.94,0,0,1-.43-2.28Zm3.42,3.89a2,2,0,0,0,.64,1.56,2.14,2.14,0,0,0,1.54.59h4.4a2.19,2.19,0,0,0,1.58-.61,2.09,2.09,0,0,0,.64-1.61V796a4.37,4.37,0,0,0-1.29-3.14,4.49,4.49,0,0,0-1.41-1,4.24,4.24,0,0,0-3.42,0,4.56,4.56,0,0,0-1.4,1,4.47,4.47,0,0,0-.93,1.44,4.62,4.62,0,0,0-.35,1.77Zm.09-16.87a1.67,1.67,0,0,1,.14-.67,1.79,1.79,0,0,1,.38-.56,2,2,0,0,1,.56-.38,1.86,1.86,0,0,1,.67-.13,1.91,1.91,0,0,1,.68.13,2.13,2.13,0,0,1,.56.38,2,2,0,0,1,.38.56,1.67,1.67,0,0,1,.13.67,1.72,1.72,0,0,1-.13.68,1.75,1.75,0,0,1-.38.54,1.88,1.88,0,0,1-.56.37,1.72,1.72,0,0,1-.68.14,1.67,1.67,0,0,1-.67-.14,1.76,1.76,0,0,1-.56-.37,1.6,1.6,0,0,1-.38-.54A1.72,1.72,0,0,1,514.92,783.06Zm5.11,0a1.67,1.67,0,0,1,.13-.67,1.79,1.79,0,0,1,.38-.56,2,2,0,0,1,.56-.38,1.86,1.86,0,0,1,.67-.13,1.65,1.65,0,0,1,1.23.51,2,2,0,0,1,.37.56,1.73,1.73,0,0,1-2.27,2.26,1.76,1.76,0,0,1-.56-.37,1.6,1.6,0,0,1-.38-.54A1.72,1.72,0,0,1,520,783.06Z"/><path class="cls-12" d="M534.26,781.32v18.59a2.14,2.14,0,0,0,.17.84,2.27,2.27,0,0,0,.47.7,2.31,2.31,0,0,0,.69.46,2.05,2.05,0,0,0,.85.17H538v3.4h-1.6a5.47,5.47,0,0,1-2.17-.44,5.76,5.76,0,0,1-1.78-1.2,5.31,5.31,0,0,1-1.21-1.77,5.22,5.22,0,0,1-.44-2.16V781.32Z"/><path class="cls-12" d="M545.79,788.07v14h3.5v3.4H536.53v-3.4h5.84v-14Zm-8.63,22.46a1.75,1.75,0,0,1,3.5,0,1.67,1.67,0,0,1-.14.67,1.6,1.6,0,0,1-.38.55,2.12,2.12,0,0,1-.55.37,1.84,1.84,0,0,1-1.36,0,2.12,2.12,0,0,1-.55-.37,1.6,1.6,0,0,1-.38-.55A1.67,1.67,0,0,1,537.16,810.53Zm5.1,0a1.72,1.72,0,0,1,.14-.68,1.91,1.91,0,0,1,.38-.56,1.76,1.76,0,0,1,.56-.37,1.74,1.74,0,0,1,1.91.37,1.88,1.88,0,0,1,.37.56,1.72,1.72,0,0,1,.14.68,1.67,1.67,0,0,1-.51,1.22,1.71,1.71,0,0,1-1.23.5,1.91,1.91,0,0,1-.68-.13,2.18,2.18,0,0,1-.56-.37,1.75,1.75,0,0,1-.38-.55A1.67,1.67,0,0,1,542.26,810.53Z"/><path class="cls-12" d="M551.06,789.77c.32-.15.75-.33,1.28-.53s1.11-.38,1.75-.56a19.94,19.94,0,0,1,2-.45,12.18,12.18,0,0,1,2.06-.17,11.75,11.75,0,0,1,2.9.36,6.26,6.26,0,0,1,2.52,1.27,6.4,6.4,0,0,1,1.8,2.48,10.18,10.18,0,0,1,.68,4v5.92h3.49v3.4h-21.8v-3.4h14.88v-5.92a6.06,6.06,0,0,0-.38-2.31,3.83,3.83,0,0,0-1-1.44,3.66,3.66,0,0,0-1.44-.74,6.06,6.06,0,0,0-1.64-.22,10.36,10.36,0,0,0-1.63.14c-.56.1-1.09.22-1.59.35s-1,.29-1.4.45-.77.31-1,.43Z"/><path class="cls-12" d="M575.24,781.32v18.59a5.38,5.38,0,0,1-.44,2.16,5.77,5.77,0,0,1-1.2,1.77,5.58,5.58,0,0,1-4,1.64H568v-3.4h1.6a2.05,2.05,0,0,0,.85-.17,2.24,2.24,0,0,0,.7-.46,2.27,2.27,0,0,0,.47-.7,2.14,2.14,0,0,0,.17-.84V781.32Z"/><path class="cls-12" d="M585.06,807.1a3.08,3.08,0,0,0,2.36-1.08,1.52,1.52,0,0,0,.36-1c0-.24-.12-.36-.38-.36l-.68,0c-1.23,0-1.84-.54-1.84-1.61a1.51,1.51,0,0,1,.56-1.26,1.94,1.94,0,0,1,1.19-.42,2.53,2.53,0,0,1,2,.79,2.92,2.92,0,0,1,.71,2,3.59,3.59,0,0,1-1.16,2.82,4,4,0,0,1-2.91,1Z"/><path class="cls-11" d="M593.1,796a7.85,7.85,0,0,1,.61-3.09,7.92,7.92,0,0,1,4.16-4.23,7.41,7.41,0,0,1,3-.63,7.32,7.32,0,0,1,3.05.64,8.08,8.08,0,0,1,2.48,1.71,8.21,8.21,0,0,1,1.68,2.5,7.6,7.6,0,0,1,.61,3v3.89a5.91,5.91,0,0,1-.44,2.31,5.38,5.38,0,0,1-1.2,1.77,5.49,5.49,0,0,1-1.78,1.14,6.18,6.18,0,0,1-2.2.4h-4.4a6,6,0,0,1-2.22-.4,5.09,5.09,0,0,1-1.77-1.12,5.15,5.15,0,0,1-1.18-1.75,5.76,5.76,0,0,1-.43-2.28Zm3.42,3.89a2.06,2.06,0,0,0,.63,1.56,2.16,2.16,0,0,0,1.55.59h4.4a2.16,2.16,0,0,0,1.57-.61,2.1,2.1,0,0,0,.65-1.61V796a4.38,4.38,0,0,0-.35-1.73,4.52,4.52,0,0,0-.94-1.41,4.61,4.61,0,0,0-1.41-1,4.14,4.14,0,0,0-1.72-.36,4.08,4.08,0,0,0-1.7.36,4.45,4.45,0,0,0-1.4,1,4.33,4.33,0,0,0-.94,1.44,4.8,4.8,0,0,0-.34,1.77Zm.09-16.87a1.67,1.67,0,0,1,.14-.67,1.76,1.76,0,0,1,.37-.56,2.13,2.13,0,0,1,.56-.38,1.91,1.91,0,0,1,.68-.13,2,2,0,0,1,.68.13,1.93,1.93,0,0,1,.55.38,1.64,1.64,0,0,1,.38.56,1.67,1.67,0,0,1,.14.67,1.72,1.72,0,0,1-.14.68,1.47,1.47,0,0,1-.38.54,1.72,1.72,0,0,1-.55.37,1.76,1.76,0,0,1-.68.14,1.72,1.72,0,0,1-.68-.14,1.88,1.88,0,0,1-.56-.37,1.58,1.58,0,0,1-.37-.54A1.72,1.72,0,0,1,596.61,783.06Zm5.1,0a1.67,1.67,0,0,1,.14-.67,1.76,1.76,0,0,1,.37-.56,2.13,2.13,0,0,1,.56-.38,1.91,1.91,0,0,1,.68-.13,1.86,1.86,0,0,1,.67.13,1.8,1.8,0,0,1,.55.38,1.76,1.76,0,0,1,.37.56,1.67,1.67,0,0,1,.14.67,1.74,1.74,0,0,1-1.73,1.73,1.72,1.72,0,0,1-.68-.14,1.88,1.88,0,0,1-.56-.37,1.58,1.58,0,0,1-.37-.54A1.72,1.72,0,0,1,601.71,783.06Z"/><path class="cls-11" d="M613.5,788.07a23.52,23.52,0,0,1,5.35.53,10.3,10.3,0,0,1,3.63,1.56,6.24,6.24,0,0,1,2.07,2.54,8.58,8.58,0,0,1,.66,3.46v5.92h3.48v3.4H612.52v-3.4h9.27v-5.92a4.23,4.23,0,0,0-.47-2,3.84,3.84,0,0,0-1.47-1.47,8.1,8.1,0,0,0-2.57-.91,20.37,20.37,0,0,0-3.78-.3Z"/><path class="cls-11" d="M636.44,788.07v11.82a5.28,5.28,0,0,1-.45,2.18,5.44,5.44,0,0,1-1.2,1.77A5.76,5.76,0,0,1,633,805a5.51,5.51,0,0,1-2.18.44h-3.66v-3.4h3.66a2,2,0,0,0,.85-.17,2.19,2.19,0,0,0,.69-.46,2.1,2.1,0,0,0,.47-.7,2,2,0,0,0,.17-.86V788.07Zm-8.6,22.46a1.72,1.72,0,0,1,.14-.68,1.68,1.68,0,0,1,.93-.93,1.72,1.72,0,0,1,.68-.14,1.76,1.76,0,0,1,.68.14,1.72,1.72,0,0,1,.55.37,1.75,1.75,0,0,1,.52,1.24,1.67,1.67,0,0,1-.14.67,1.6,1.6,0,0,1-.38.55,2.12,2.12,0,0,1-.55.37,2,2,0,0,1-.68.13,1.91,1.91,0,0,1-.68-.13,2.37,2.37,0,0,1-.56-.37,1.72,1.72,0,0,1-.37-.55A1.67,1.67,0,0,1,627.84,810.53Zm5.1,0a1.75,1.75,0,0,1,.52-1.24,1.76,1.76,0,0,1,.56-.37,1.74,1.74,0,0,1,1.91.37,1.88,1.88,0,0,1,.37.56,1.72,1.72,0,0,1,.14.68,1.67,1.67,0,0,1-.51,1.22,1.71,1.71,0,0,1-1.23.5,1.91,1.91,0,0,1-.68-.13,2.18,2.18,0,0,1-.56-.37,1.6,1.6,0,0,1-.38-.55A1.67,1.67,0,0,1,632.94,810.53Z"/><path class="cls-11" d="M641.18,788.07a23.52,23.52,0,0,1,5.35.53,10.3,10.3,0,0,1,3.63,1.56,6.24,6.24,0,0,1,2.07,2.54,8.58,8.58,0,0,1,.66,3.46v5.92h3.48v3.4H640.21v-3.4h9.26v-5.92a4.23,4.23,0,0,0-.47-2,3.84,3.84,0,0,0-1.47-1.47,8.1,8.1,0,0,0-2.57-.91,20.37,20.37,0,0,0-3.78-.3Z"/><path class="cls-11" d="M658.08,789.77c.32-.15.75-.33,1.28-.53s1.11-.38,1.76-.56a19.74,19.74,0,0,1,2-.45,12.29,12.29,0,0,1,2.07-.17,11.68,11.68,0,0,1,2.89.36,6.3,6.3,0,0,1,2.53,1.27,6.48,6.48,0,0,1,1.79,2.48,10.2,10.2,0,0,1,.68,4V800a5.27,5.27,0,0,1-.44,2.13,5.45,5.45,0,0,1-1.22,1.76,5.54,5.54,0,0,1-1.8,1.19,5.69,5.69,0,0,1-2.18.43H654.84v-3.4h12.61a2.1,2.1,0,0,0,.86-.17,2.23,2.23,0,0,0,.71-.46,2.16,2.16,0,0,0,.48-.67,2.08,2.08,0,0,0,.17-.82v-3.8a5.85,5.85,0,0,0-.39-2.31,3.83,3.83,0,0,0-1-1.44,3.56,3.56,0,0,0-1.43-.74,6.11,6.11,0,0,0-1.64-.22,10.26,10.26,0,0,0-1.63.14c-.56.1-1.09.22-1.6.35s-1,.29-1.39.45-.78.31-1,.43Zm5.46,20.7a1.71,1.71,0,0,1,1.75-1.72,1.63,1.63,0,0,1,1.22.5,1.65,1.65,0,0,1,.51,1.22,1.72,1.72,0,0,1-.14.68,1.84,1.84,0,0,1-.37.55,1.64,1.64,0,0,1-.55.38,1.67,1.67,0,0,1-.67.13,1.69,1.69,0,0,1-1.25-.51,2,2,0,0,1-.36-.55A1.56,1.56,0,0,1,663.54,810.47Z"/><path class="cls-13" d="M702,802.08v3.4h-6.9V796a4.2,4.2,0,0,0-.33-1.73,4.9,4.9,0,0,0-1-1.44,4.65,4.65,0,0,0-1.44-1,4.07,4.07,0,0,0-1.73-.37,4.3,4.3,0,0,0-1.74.36,4.56,4.56,0,0,0-1.42,1,4.64,4.64,0,0,0-1,1.48,4.71,4.71,0,0,0-.35,1.81V800a2.09,2.09,0,0,0,.63,1.5,2,2,0,0,0,.68.46,1.9,1.9,0,0,0,.83.17H692v3.4h-3.73a5.59,5.59,0,0,1-2.16-.43,5.64,5.64,0,0,1-3-2.95,5.29,5.29,0,0,1-.43-2.15v-3.82a7.81,7.81,0,0,1,.62-3.13,7.92,7.92,0,0,1,4.19-4.27,7.64,7.64,0,0,1,6.12,0,8,8,0,0,1,4.23,4.25,7.5,7.5,0,0,1,.6,3v6.06Zm-15.57-19a1.67,1.67,0,0,1,.14-.67,1.76,1.76,0,0,1,.37-.56,2.13,2.13,0,0,1,.56-.38,1.91,1.91,0,0,1,.68-.13,1.86,1.86,0,0,1,.67.13,2,2,0,0,1,.56.38,1.64,1.64,0,0,1,.38.56,1.67,1.67,0,0,1,.14.67,1.72,1.72,0,0,1-.14.68,1.47,1.47,0,0,1-.38.54,1.76,1.76,0,0,1-.56.37,1.67,1.67,0,0,1-.67.14,1.72,1.72,0,0,1-.68-.14,1.88,1.88,0,0,1-.56-.37,1.58,1.58,0,0,1-.37-.54A1.72,1.72,0,0,1,686.39,783.06Zm5.1,0a1.67,1.67,0,0,1,.14-.67,1.76,1.76,0,0,1,.37-.56,2.13,2.13,0,0,1,.56-.38,1.91,1.91,0,0,1,.68-.13,1.86,1.86,0,0,1,.67.13,1.8,1.8,0,0,1,.55.38,1.76,1.76,0,0,1,.37.56,1.67,1.67,0,0,1,.14.67,1.74,1.74,0,0,1-1.73,1.73,1.72,1.72,0,0,1-.68-.14,1.88,1.88,0,0,1-.56-.37,1.58,1.58,0,0,1-.37-.54A1.72,1.72,0,0,1,691.49,783.06Z"/><path class="cls-13" d="M709.73,788.07v11.82a5.28,5.28,0,0,1-.45,2.18,5.44,5.44,0,0,1-1.2,1.77,5.76,5.76,0,0,1-1.78,1.2,5.51,5.51,0,0,1-2.18.44h-3.66v-3.4h3.66a2,2,0,0,0,.85-.17,2.36,2.36,0,0,0,.7-.46,2.24,2.24,0,0,0,.46-.7,2,2,0,0,0,.17-.86V788.07Zm-8.6,22.46a1.72,1.72,0,0,1,.14-.68,1.68,1.68,0,0,1,.93-.93,1.72,1.72,0,0,1,.68-.14,1.76,1.76,0,0,1,.68.14,1.72,1.72,0,0,1,.55.37,1.75,1.75,0,0,1,.52,1.24,1.67,1.67,0,0,1-.14.67,1.6,1.6,0,0,1-.38.55,2.12,2.12,0,0,1-.55.37,2,2,0,0,1-.68.13,1.91,1.91,0,0,1-.68-.13,2.37,2.37,0,0,1-.56-.37,1.72,1.72,0,0,1-.37-.55A1.67,1.67,0,0,1,701.13,810.53Zm5.1,0a1.75,1.75,0,0,1,.52-1.24,1.76,1.76,0,0,1,.56-.37,1.74,1.74,0,0,1,1.91.37,1.88,1.88,0,0,1,.37.56,1.72,1.72,0,0,1,.14.68,1.67,1.67,0,0,1-.51,1.22,1.71,1.71,0,0,1-1.23.5,1.91,1.91,0,0,1-.68-.13,2.18,2.18,0,0,1-.56-.37,1.6,1.6,0,0,1-.38-.55A1.67,1.67,0,0,1,706.23,810.53Z"/><path class="cls-13" d="M716.92,781.32v24.16h-3.43V781.32Z"/><path class="cls-13" d="M721.66,788.07a23.52,23.52,0,0,1,5.35.53,10.39,10.39,0,0,1,3.63,1.56,6.24,6.24,0,0,1,2.07,2.54,8.58,8.58,0,0,1,.66,3.46v5.92h3.48v3.4H720.68v-3.4H730v-5.92a4.23,4.23,0,0,0-.47-2,3.84,3.84,0,0,0-1.47-1.47,8.1,8.1,0,0,0-2.57-.91,20.44,20.44,0,0,0-3.78-.3Z"/><path class="cls-13" d="M744.58,788.07v11.82a5.28,5.28,0,0,1-.45,2.18,5.44,5.44,0,0,1-1.2,1.77,5.76,5.76,0,0,1-1.78,1.2,5.51,5.51,0,0,1-2.18.44h-3.65v-3.4H739a2,2,0,0,0,.85-.17,2.15,2.15,0,0,0,1.16-1.16,2,2,0,0,0,.17-.86V788.07Zm-3.51,22.4a1.67,1.67,0,0,1,.13-.67,1.76,1.76,0,0,1,.94-.92,1.72,1.72,0,0,1,.68-.13,1.72,1.72,0,0,1,1.74,1.72,1.72,1.72,0,0,1-.14.68,1.84,1.84,0,0,1-.37.55,1.64,1.64,0,0,1-.55.38,1.84,1.84,0,0,1-1.36,0,1.79,1.79,0,0,1-.56-.38,1.87,1.87,0,0,1-.38-.55A1.72,1.72,0,0,1,741.07,810.47Z"/></svg>