<svg id="Layer_1" data-name="Layer 1" xmlns="http://www.w3.org/2000/svg" xmlns:xlink="http://www.w3.org/1999/xlink" viewBox="0 0 1171.49 1008"><defs><style>.cls-1,.cls-2,.cls-3,.cls-4,.cls-5,.cls-6,.cls-7,.cls-8,.cls-9{opacity:0.75;}.cls-1{fill:url(#linear-gradient);}.cls-2{fill:url(#linear-gradient-2);}.cls-3{fill:url(#linear-gradient-3);}.cls-4{fill:url(#linear-gradient-4);}.cls-5{fill:url(#linear-gradient-5);}.cls-6{fill:url(#linear-gradient-6);}.cls-7{fill:url(#linear-gradient-7);}.cls-8{fill:url(#linear-gradient-8);}.cls-9{fill:url(#linear-gradient-9);}.cls-10{fill:url(#linear-gradient-10);}.cls-11{fill:#55d555;}.cls-12,.cls-13{fill:#40bfff;}.cls-13{font-size:56.77px;font-family:beINNormal, beIN Normal ;}</style><linearGradient id="linear-gradient" x1="805.2" y1="718.9" x2="805.2" y2="372.15" gradientTransform="translate(592.12 1520.66) rotate(-112.38)" gradientUnits="userSpaceOnUse"><stop offset="0" stop-color="#104e92"/><stop offset="0.25" stop-color="#057fd7"/><stop offset="0.5" stop-color="#40bfff"/><stop offset="0.75" stop-color="#55d555"/><stop offset="1" stop-color="#55d555"/></linearGradient><linearGradient id="linear-gradient-2" x1="784.7" y1="718.9" x2="784.7" y2="372.15" gradientTransform="translate(179.57 1389.83) rotate(-90)" xlink:href="#linear-gradient"/><linearGradient id="linear-gradient-3" x1="783.93" y1="718.9" x2="783.93" y2="372.15" gradientTransform="matrix(0.39, -0.92, 0.92, 0.39, -115.77, 1113.23)" xlink:href="#linear-gradient"/><linearGradient id="linear-gradient-4" x1="964.38" y1="718.9" x2="964.38" y2="372.15" gradientTransform="translate(77.4 1239.74) rotate(-67.62)" xlink:href="#linear-gradient"/><linearGradient id="linear-gradient-5" x1="984.89" y1="718.9" x2="984.89" y2="372.15" gradientTransform="translate(379.75 1590.02) rotate(-90)" xlink:href="#linear-gradient"/><linearGradient id="linear-gradient-6" x1="985.65" y1="718.9" x2="985.65" y2="372.15" gradientTransform="translate(778.91 1803.34) rotate(-113.05)" xlink:href="#linear-gradient"/><linearGradient id="linear-gradient-7" x1="884.79" y1="718.9" x2="884.79" y2="372.15" gradientTransform="matrix(1, 0, 0, 1, 0, 0)" xlink:href="#linear-gradient"/><linearGradient id="linear-gradient-8" x1="942.07" y1="718.9" x2="942.07" y2="372.15" gradientTransform="matrix(1, 0, 0, 1, 0, 0)" xlink:href="#linear-gradient"/><linearGradient id="linear-gradient-9" x1="827.51" y1="718.9" x2="827.51" y2="372.15" gradientTransform="matrix(1, 0, 0, 1, 0, 0)" xlink:href="#linear-gradient"/><linearGradient id="linear-gradient-10" x1="884.79" y1="718.9" x2="884.79" y2="372.15" gradientTransform="matrix(1, 0, 0, 1, 0, 0)" xlink:href="#linear-gradient"/></defs><path class="cls-1" d="M888.65,478.63h0a0,0,0,0,1,0,0v0a166.9,166.9,0,0,1-166.9,166.9h0a0,0,0,0,1,0,0v0A166.9,166.9,0,0,1,888.65,478.63Z" transform="translate(1631.56 31.59) rotate(112.38)"/><path class="cls-2" d="M850.59,539.24h0a0,0,0,0,1,0,0v0A131.78,131.78,0,0,1,718.81,671h0a0,0,0,0,1,0,0v0A131.78,131.78,0,0,1,850.59,539.24Z" transform="translate(1389.83 -179.57) rotate(90)"/><path class="cls-3" d="M834.74,593.34h0a0,0,0,0,1,0,0v0A101.63,101.63,0,0,1,733.11,695h0a0,0,0,0,1,0,0v0A101.63,101.63,0,0,1,834.74,593.34Z" transform="translate(1069.66 -329.41) rotate(66.95)"/><path class="cls-4" d="M880.93,478.63h0a166.9,166.9,0,0,1,166.9,166.9v0a0,0,0,0,1,0,0h0a166.9,166.9,0,0,1-166.9-166.9v0a0,0,0,0,1,0,0Z" transform="translate(1116.85 -543.68) rotate(67.62)"/><path class="cls-5" d="M919,539.24h0A131.78,131.78,0,0,1,1050.77,671v0a0,0,0,0,1,0,0h0A131.78,131.78,0,0,1,919,539.24v0a0,0,0,0,1,0,0Z" transform="translate(1590.02 -379.75) rotate(90)"/><path class="cls-6" d="M934.84,593.34h0A101.63,101.63,0,0,1,1036.47,695v0a0,0,0,0,1,0,0h0A101.63,101.63,0,0,1,934.84,593.34v0a0,0,0,0,1,0,0Z" transform="translate(1964.34 -10.53) rotate(113.05)"/><path class="cls-7" d="M941.35,467.92a107.06,107.06,0,0,1-17.48,19.77,50.28,50.28,0,1,0-78.16,0,106.7,106.7,0,0,1-17.48-19.77c-31.72-45.49-21.2-95.73,14-125.82l42.56-36.37,42.54,36.37C962.55,372.19,973.08,422.43,941.35,467.92Z"/><path class="cls-8" d="M941.35,467.92a107.06,107.06,0,0,1-17.48,19.77,50.32,50.32,0,0,0,2.45-60,74.17,74.17,0,0,0,30.06-42.16C964.28,411.06,960.57,440.37,941.35,467.92Z"/><path class="cls-9" d="M845.71,487.69a106.7,106.7,0,0,1-17.48-19.77c-19.22-27.55-22.93-56.86-15-82.37a74.23,74.23,0,0,0,30.07,42.15,50.3,50.3,0,0,0,2.45,60Z"/><path class="cls-10" d="M914.91,456.06a30.12,30.12,0,1,1-30.11-30.13A30.12,30.12,0,0,1,914.91,456.06Z"/><g id="Layer_2" data-name="Layer 2"><path class="cls-11" d="M266.28,538h30v13.34H257.11c-4.17,0-8.34,0-11.67-.83-3.34.83-6.67.83-11.67.83H172.08c-9.17,0-15.84-3.34-21.68-9.17-4.17-5-6.67-12.51-6.67-20.84v-20l14.18-7.5V520.5c0,11.68,5.83,17.51,16.67,17.51h50c-6.67-8.34-10-16.67-10-26.68,0-10.83,3.34-20,9.17-25.84a30.82,30.82,0,0,1,22.51-9.17A29.65,29.65,0,0,1,270.45,488c5,6.67,6.67,14.17,6.67,23.34A49.39,49.39,0,0,1,266.28,538Zm-20.84-1.67a24,24,0,0,0,12.5-10,27.4,27.4,0,0,0,5-15.84q0-10-5-15a15,15,0,0,0-12.5-5.83c-5,0-10,1.67-12.51,5.83-3.33,3.34-5,9.17-5,15a27.47,27.47,0,0,0,5,15.84A24.11,24.11,0,0,0,245.44,536.34Zm.83-76.69c-5.83,0-8.33-2.5-8.33-8.34s2.5-8.34,8.33-8.34c5,0,8.34,2.51,8.34,8.34C254.61,456.31,251.27,459.65,246.27,459.65Z"/><path class="cls-11" d="M286.29,551.35V538h10.84c10.83,0,16.67-5.83,16.67-16.67v-35l14.17-7.5v42.52c0,9.17-2.5,16.67-8.34,22.51-5,5-12.5,7.5-20.84,7.5Zm9.17,33.35c-5.84,0-8.34-2.51-8.34-8.34s2.5-8.34,8.34-8.34c5,0,8.33,2.5,8.33,8.34C303,581.36,300.46,584.7,295.46,584.7Zm20.84,0c-5.84,0-8.34-2.51-8.34-8.34s2.5-8.34,8.34-8.34c5,0,8.34,2.5,8.34,8.34C324.64,581.36,322.13,584.7,316.3,584.7Z"/><path class="cls-11" d="M420.51,450.48,434.68,443v76.7c0,10-3.34,17.51-9.17,23.34-5.84,5-12.51,8.34-21.68,8.34H346.31L353,538h24.18V473l14.17-7.51V538h10.84c11.67,0,17.5-5.83,17.5-18.34V450.48Z"/><path class="cls-12" d="M543.89,538v13.34H523.05c-.84,10-4.17,17.51-12.51,24.18A36.59,36.59,0,0,1,488,583a44.46,44.46,0,0,1-20-5V565.52a35,35,0,0,0,17.51,5,23.36,23.36,0,0,0,15.84-5.83A17.41,17.41,0,0,0,508,551.35c-5.84,0-10-.83-12.51-.83Q478,549.26,468,538c-5-6.67-7.5-14.17-7.5-24.17,0-12.51,3.34-21.68,10-28.35,5.83-5.83,13.33-9.17,23.34-9.17s17.5,3.34,23.34,9.17c4.17,5,6.67,12.51,6.67,20.84V538ZM508,507.17q0-17.52-15-17.51c-5.83,0-10,2.5-13.33,6.67s-5,10-5,17.51c0,15,7.51,22.5,21.68,23.34,2.5,0,6.67.83,12.5.83V507.17Z"/><path class="cls-12" d="M591.41,538h10.83v13.34h-12.5c-9.17,0-16.68-3.34-21.68-9.17-5,5.83-12.5,9.17-21.67,9.17H533.05V538h10.84c10.83,0,16.67-5.83,16.67-16.67v-35l14.17-7.5v42.52C575.57,532.18,580.57,538,591.41,538Zm-40,30c5,0,8.34,2.5,8.34,8.34s-2.5,8.34-8.34,8.34-8.34-2.51-8.34-8.34C543.89,570.52,546.39,568,551.39,568Zm21.67,0c5,0,8.34,2.5,8.34,8.34s-2.5,8.34-8.34,8.34-8.33-2.51-8.33-8.34S567.23,568,573.06,568Z"/><path class="cls-12" d="M593.07,551.35V538h10.84c10.84,0,16.67-5.83,16.67-16.67v-35l14.18-7.5v42.52c0,9.17-2.51,16.67-8.34,22.51-5,5-12.51,7.5-20.84,7.5ZM627.25,458c-5.83,0-8.33-2.5-8.33-8.34s2.5-8.33,8.33-8.33c5,0,8.34,2.5,8.34,8.33C634.76,455.48,632.25,458,627.25,458Z"/></g><text class="cls-13" transform="translate(538.97 657.3)">ةيادب</text></svg>